<svg width="719" height="473" viewBox="0 0 719 473" fill="none" xmlns="http://www.w3.org/2000/svg">
<path fill-rule="evenodd" clip-rule="evenodd" d="M325.948 208.026C305.312 185.878 259.39 172.574 206.061 172.574C152.732 172.574 106.811 185.878 86.1367 208.026H325.948Z" fill="#01325C"/>
<path fill-rule="evenodd" clip-rule="evenodd" d="M86.1367 268.838C106.811 290.986 152.694 304.29 206.061 304.29C259.39 304.29 305.312 290.986 325.948 268.838H86.1367Z" fill="#01325C"/>
<path d="M335.735 201.637C336.642 201.637 337.398 201.599 337.398 200.541C337.398 199.672 336.642 199.521 335.924 199.521H334.487V201.637H335.735ZM334.487 205.492H333.429V198.614H336.075C337.7 198.614 338.494 199.218 338.494 200.579C338.494 201.826 337.738 202.355 336.717 202.469L338.683 205.492H337.511L335.697 202.544H334.487V205.492ZM335.773 207.042C338.456 207.042 340.573 204.925 340.573 202.053C340.573 199.218 338.456 197.102 335.773 197.102C333.013 197.102 330.897 199.218 330.897 202.053C330.897 204.925 333.013 207.042 335.773 207.042ZM329.688 202.053C329.688 198.614 332.484 196.119 335.773 196.119C339.023 196.119 341.782 198.614 341.782 202.053C341.782 205.492 339.023 208.025 335.773 208.025C332.484 208.025 329.688 205.492 329.688 202.053Z" fill="#01325C"/>
<path d="M96.9832 236.636H99.7801C101.972 236.636 103.522 236.258 104.429 235.502C105.336 234.746 105.752 233.725 105.752 232.554C105.752 231.382 105.374 230.399 104.618 229.606C103.824 228.812 102.388 228.396 100.234 228.396H96.9832V236.636ZM85.5312 220.875H104.504C108.624 220.875 111.723 221.858 113.802 223.823C115.843 225.788 116.864 228.585 116.864 232.214C116.864 235.955 115.767 238.866 113.5 240.982C111.27 243.061 107.83 244.119 103.257 244.119H96.9832V257.839H85.5312V220.875Z" fill="#01325C"/>
<path d="M142.602 212.221H149.216V218.533H142.602V212.221ZM132.813 239.433C132.813 243.175 133.531 245.858 134.891 247.484C136.29 249.109 138.18 249.903 140.561 249.903C143.017 249.903 144.907 249.109 146.268 247.521C147.628 245.934 148.271 243.062 148.271 238.942C148.271 235.465 147.591 232.895 146.192 231.307C144.756 229.682 142.866 228.888 140.485 228.888C138.18 228.888 136.328 229.72 134.929 231.345C133.531 232.97 132.813 235.654 132.813 239.433ZM131.906 212.221H138.444V218.533H131.906V212.221ZM121.398 239.396C121.398 233.348 123.099 228.662 126.463 225.298C129.827 221.934 134.476 220.271 140.485 220.271C146.646 220.271 151.37 221.896 154.696 225.222C158.022 228.51 159.685 233.121 159.685 239.093C159.685 243.402 158.967 246.955 157.531 249.714C156.057 252.473 153.978 254.627 151.219 256.139C148.46 257.688 145.058 258.444 140.939 258.444C136.781 258.444 133.342 257.802 130.583 256.479C127.861 255.156 125.632 253.04 123.969 250.167C122.268 247.295 121.398 243.704 121.398 239.396Z" fill="#01325C"/>
<path d="M165.848 220.875H177.262V248.73H195.101V257.839H165.848V220.875Z" fill="#01325C"/>
<path d="M195.59 220.875H206.437L210.33 241.587L216.075 220.875H226.847L232.591 241.549L236.484 220.875H247.294L239.13 257.839H227.943L221.48 234.557L215.017 257.839H203.791L195.59 220.875Z" fill="#01325C"/>
<path d="M271.37 243.741L267.288 230.475L263.244 243.741H271.37ZM273.751 251.754H260.787L258.973 257.839H247.332L261.203 220.875H273.638L287.546 257.839H275.603L273.751 251.754Z" fill="#01325C"/>
<path d="M288.642 220.875H301.227L307.766 232.251L314.153 220.875H326.588L315.098 238.79L327.646 257.839H314.834L307.539 245.971L300.245 257.839H287.508L300.245 238.563L288.642 220.875Z" fill="#01325C"/>
<path d="M368.164 154.961H362.57V325.38H368.164V154.961Z" fill="#01325C"/>
<path d="M425.546 200.27H418.08C417.944 199.304 417.665 198.446 417.245 197.696C416.825 196.934 416.285 196.287 415.626 195.752C414.967 195.218 414.205 194.809 413.342 194.525C412.489 194.241 411.563 194.099 410.563 194.099C408.756 194.099 407.183 194.548 405.842 195.446C404.501 196.332 403.461 197.627 402.722 199.332C401.984 201.025 401.614 203.082 401.614 205.502C401.614 207.991 401.984 210.082 402.722 211.775C403.472 213.468 404.518 214.747 405.859 215.61C407.2 216.474 408.751 216.906 410.512 216.906C411.501 216.906 412.415 216.775 413.256 216.514C414.109 216.252 414.864 215.872 415.523 215.372C416.183 214.86 416.728 214.241 417.16 213.514C417.603 212.787 417.91 211.957 418.08 211.025L425.546 211.059C425.353 212.662 424.87 214.207 424.097 215.696C423.336 217.173 422.308 218.497 421.012 219.667C419.728 220.826 418.194 221.747 416.41 222.429C414.637 223.099 412.631 223.434 410.393 223.434C407.279 223.434 404.495 222.73 402.04 221.321C399.597 219.912 397.665 217.872 396.245 215.201C394.836 212.531 394.131 209.298 394.131 205.502C394.131 201.696 394.847 198.457 396.279 195.787C397.711 193.116 399.654 191.082 402.109 189.684C404.563 188.275 407.325 187.571 410.393 187.571C412.415 187.571 414.29 187.855 416.018 188.423C417.756 188.991 419.296 189.821 420.637 190.912C421.978 191.991 423.069 193.315 423.91 194.883C424.762 196.451 425.308 198.247 425.546 200.27ZM437.964 188.048V222.957H430.702V188.048H437.964ZM455.61 223.468C452.962 223.468 450.673 222.906 448.741 221.781C446.82 220.645 445.337 219.065 444.292 217.042C443.246 215.008 442.724 212.65 442.724 209.968C442.724 207.264 443.246 204.9 444.292 202.877C445.337 200.843 446.82 199.264 448.741 198.139C450.673 197.002 452.962 196.434 455.61 196.434C458.258 196.434 460.542 197.002 462.462 198.139C464.394 199.264 465.883 200.843 466.928 202.877C467.974 204.9 468.496 207.264 468.496 209.968C468.496 212.65 467.974 215.008 466.928 217.042C465.883 219.065 464.394 220.645 462.462 221.781C460.542 222.906 458.258 223.468 455.61 223.468ZM455.644 217.843C456.849 217.843 457.854 217.502 458.661 216.821C459.468 216.127 460.076 215.184 460.485 213.991C460.906 212.798 461.116 211.44 461.116 209.917C461.116 208.395 460.906 207.037 460.485 205.843C460.076 204.65 459.468 203.707 458.661 203.014C457.854 202.321 456.849 201.974 455.644 201.974C454.428 201.974 453.406 202.321 452.576 203.014C451.758 203.707 451.138 204.65 450.718 205.843C450.309 207.037 450.104 208.395 450.104 209.917C450.104 211.44 450.309 212.798 450.718 213.991C451.138 215.184 451.758 216.127 452.576 216.821C453.406 217.502 454.428 217.843 455.644 217.843ZM490.008 211.809V196.775H497.269V222.957H490.298V218.201H490.025C489.434 219.735 488.451 220.968 487.076 221.9C485.712 222.832 484.048 223.298 482.082 223.298C480.332 223.298 478.792 222.9 477.462 222.105C476.133 221.309 475.093 220.179 474.343 218.713C473.604 217.247 473.229 215.491 473.218 213.446V196.775H480.479V212.15C480.491 213.696 480.906 214.917 481.724 215.815C482.542 216.713 483.638 217.162 485.013 217.162C485.888 217.162 486.707 216.963 487.468 216.565C488.229 216.156 488.843 215.554 489.309 214.758C489.786 213.963 490.019 212.98 490.008 211.809ZM512.725 223.383C510.737 223.383 508.935 222.872 507.322 221.849C505.719 220.815 504.447 219.298 503.504 217.298C502.572 215.287 502.106 212.821 502.106 209.9C502.106 206.9 502.589 204.406 503.555 202.417C504.521 200.417 505.805 198.923 507.407 197.934C509.021 196.934 510.788 196.434 512.708 196.434C514.174 196.434 515.396 196.684 516.373 197.184C517.362 197.673 518.157 198.287 518.759 199.025C519.373 199.752 519.839 200.468 520.157 201.173H520.379V188.048H527.623V222.957H520.464V218.764H520.157C519.816 219.491 519.333 220.213 518.708 220.929C518.094 221.633 517.293 222.218 516.305 222.684C515.327 223.15 514.134 223.383 512.725 223.383ZM515.026 217.605C516.197 217.605 517.185 217.287 517.992 216.65C518.81 216.002 519.435 215.099 519.867 213.94C520.31 212.781 520.532 211.423 520.532 209.866C520.532 208.309 520.316 206.957 519.884 205.809C519.452 204.662 518.827 203.775 518.009 203.15C517.191 202.525 516.197 202.213 515.026 202.213C513.833 202.213 512.827 202.537 512.009 203.184C511.191 203.832 510.572 204.73 510.151 205.877C509.731 207.025 509.521 208.355 509.521 209.866C509.521 211.389 509.731 212.735 510.151 213.906C510.583 215.065 511.202 215.974 512.009 216.633C512.827 217.281 513.833 217.605 515.026 217.605ZM546.104 222.957H533.729V188.048H546.207C549.718 188.048 552.741 188.747 555.275 190.145C557.809 191.531 559.758 193.525 561.121 196.127C562.496 198.73 563.184 201.843 563.184 205.468C563.184 209.105 562.496 212.23 561.121 214.843C559.758 217.457 557.798 219.463 555.241 220.86C552.695 222.258 549.65 222.957 546.104 222.957ZM541.11 216.633H545.798C547.979 216.633 549.815 216.247 551.303 215.474C552.803 214.69 553.928 213.48 554.678 211.843C555.44 210.196 555.82 208.071 555.82 205.468C555.82 202.889 555.44 200.781 554.678 199.145C553.928 197.508 552.809 196.304 551.32 195.531C549.832 194.758 547.996 194.372 545.815 194.372H541.11V216.633ZM572.7 222.957H564.79L576.842 188.048H586.353L598.387 222.957H590.478L581.734 196.025H581.461L572.7 222.957ZM572.205 209.235H590.887V214.997H572.205V209.235ZM620.729 198.088C620.593 196.713 620.008 195.645 618.974 194.883C617.94 194.122 616.536 193.741 614.763 193.741C613.559 193.741 612.542 193.912 611.712 194.252C610.883 194.582 610.246 195.042 609.803 195.633C609.371 196.224 609.156 196.895 609.156 197.645C609.133 198.27 609.263 198.815 609.548 199.281C609.843 199.747 610.246 200.15 610.758 200.491C611.269 200.821 611.86 201.11 612.531 201.36C613.201 201.599 613.917 201.804 614.678 201.974L617.815 202.724C619.337 203.065 620.735 203.52 622.008 204.088C623.281 204.656 624.383 205.355 625.315 206.184C626.246 207.014 626.968 207.991 627.479 209.116C628.002 210.241 628.269 211.531 628.281 212.985C628.269 215.122 627.724 216.974 626.644 218.542C625.576 220.099 624.031 221.309 622.008 222.173C619.996 223.025 617.57 223.451 614.729 223.451C611.911 223.451 609.457 223.02 607.366 222.156C605.286 221.292 603.661 220.014 602.491 218.321C601.332 216.616 600.724 214.508 600.667 211.997H607.809C607.888 213.167 608.224 214.145 608.815 214.929C609.417 215.701 610.218 216.287 611.218 216.684C612.229 217.071 613.371 217.264 614.644 217.264C615.894 217.264 616.979 217.082 617.9 216.718C618.832 216.355 619.553 215.849 620.065 215.201C620.576 214.554 620.832 213.809 620.832 212.968C620.832 212.184 620.599 211.525 620.133 210.991C619.678 210.457 619.008 210.002 618.121 209.627C617.246 209.252 616.173 208.912 614.9 208.605L611.099 207.65C608.156 206.934 605.832 205.815 604.127 204.292C602.423 202.77 601.576 200.718 601.587 198.139C601.576 196.025 602.138 194.179 603.275 192.599C604.423 191.02 605.996 189.787 607.996 188.9C609.996 188.014 612.269 187.571 614.815 187.571C617.406 187.571 619.667 188.014 621.599 188.9C623.542 189.787 625.053 191.02 626.133 192.599C627.212 194.179 627.769 196.008 627.803 198.088H620.729ZM633.245 222.957V188.048H640.626V202.451H655.609V188.048H662.972V222.957H655.609V208.537H640.626V222.957H633.245Z" fill="#01325C"/>
<path d="M476.618 289.96C471.527 289.96 466.993 289.085 463.016 287.335C459.061 285.563 455.936 283.131 453.641 280.04C451.368 276.926 450.198 273.335 450.13 269.267H464.993C465.084 270.972 465.641 272.472 466.664 273.767C467.709 275.04 469.096 276.029 470.823 276.733C472.55 277.438 474.493 277.79 476.652 277.79C478.902 277.79 480.891 277.392 482.618 276.597C484.346 275.801 485.698 274.699 486.675 273.29C487.652 271.881 488.141 270.256 488.141 268.415C488.141 266.551 487.618 264.904 486.573 263.472C485.55 262.017 484.073 260.881 482.141 260.063C480.232 259.244 477.959 258.835 475.323 258.835H468.811V247.994H475.323C477.55 247.994 479.516 247.608 481.221 246.835C482.948 246.063 484.289 244.994 485.243 243.631C486.198 242.244 486.675 240.631 486.675 238.79C486.675 237.04 486.255 235.506 485.414 234.188C484.596 232.847 483.436 231.801 481.936 231.051C480.459 230.301 478.732 229.926 476.755 229.926C474.755 229.926 472.925 230.29 471.266 231.017C469.607 231.722 468.277 232.733 467.277 234.051C466.277 235.369 465.743 236.915 465.675 238.688H451.527C451.596 234.665 452.743 231.119 454.971 228.051C457.198 224.983 460.198 222.585 463.971 220.858C467.766 219.108 472.05 218.233 476.823 218.233C481.641 218.233 485.857 219.108 489.471 220.858C493.084 222.608 495.891 224.972 497.891 227.949C499.914 230.904 500.914 234.222 500.891 237.904C500.914 241.813 499.698 245.074 497.243 247.688C494.811 250.301 491.641 251.96 487.732 252.665V253.21C492.868 253.869 496.777 255.654 499.459 258.563C502.164 261.449 503.505 265.063 503.482 269.404C503.505 273.381 502.357 276.915 500.039 280.006C497.743 283.097 494.573 285.529 490.527 287.301C486.482 289.074 481.846 289.96 476.618 289.96ZM540.888 289.96C537.297 289.938 533.831 289.335 530.49 288.154C527.172 286.972 524.195 285.051 521.559 282.392C518.922 279.733 516.831 276.21 515.286 271.824C513.763 267.438 513.002 262.051 513.002 255.665C513.025 249.801 513.695 244.563 515.013 239.949C516.354 235.313 518.263 231.381 520.74 228.154C523.24 224.926 526.229 222.472 529.706 220.79C533.184 219.085 537.081 218.233 541.4 218.233C546.059 218.233 550.172 219.142 553.74 220.96C557.309 222.756 560.172 225.199 562.331 228.29C564.513 231.381 565.831 234.847 566.286 238.688H551.729C551.161 236.256 549.968 234.347 548.15 232.96C546.331 231.574 544.081 230.881 541.4 230.881C536.854 230.881 533.4 232.858 531.036 236.813C528.695 240.767 527.502 246.142 527.456 252.938H527.934C528.979 250.869 530.388 249.108 532.161 247.654C533.956 246.176 535.99 245.051 538.263 244.279C540.559 243.483 542.979 243.085 545.525 243.085C549.661 243.085 553.343 244.063 556.57 246.017C559.797 247.949 562.343 250.608 564.206 253.994C566.07 257.381 567.002 261.256 567.002 265.619C567.002 270.347 565.9 274.551 563.695 278.233C561.513 281.915 558.456 284.801 554.525 286.892C550.615 288.96 546.07 289.983 540.888 289.96ZM540.82 278.369C543.093 278.369 545.127 277.824 546.922 276.733C548.718 275.642 550.127 274.165 551.15 272.301C552.172 270.438 552.684 268.347 552.684 266.029C552.684 263.71 552.172 261.631 551.15 259.79C550.15 257.949 548.763 256.483 546.99 255.392C545.218 254.301 543.195 253.756 540.922 253.756C539.218 253.756 537.638 254.074 536.184 254.71C534.752 255.347 533.49 256.233 532.4 257.369C531.331 258.506 530.49 259.824 529.877 261.324C529.263 262.801 528.956 264.381 528.956 266.063C528.956 268.313 529.468 270.369 530.49 272.233C531.536 274.097 532.945 275.585 534.718 276.699C536.513 277.813 538.547 278.369 540.82 278.369ZM604.843 290.54C598.979 290.517 593.934 289.074 589.706 286.21C585.502 283.347 582.263 279.199 579.99 273.767C577.74 268.335 576.627 261.801 576.65 254.165C576.65 246.551 577.775 240.063 580.025 234.699C582.297 229.335 585.536 225.256 589.74 222.46C593.968 219.642 599.002 218.233 604.843 218.233C610.684 218.233 615.706 219.642 619.911 222.46C624.138 225.279 627.388 229.369 629.661 234.733C631.934 240.074 633.059 246.551 633.036 254.165C633.036 261.824 631.9 268.369 629.627 273.801C627.377 279.233 624.15 283.381 619.945 286.244C615.74 289.108 610.706 290.54 604.843 290.54ZM604.843 278.301C608.843 278.301 612.036 276.29 614.422 272.267C616.809 268.244 617.99 262.21 617.968 254.165C617.968 248.869 617.422 244.46 616.331 240.938C615.263 237.415 613.74 234.767 611.763 232.994C609.809 231.222 607.502 230.335 604.843 230.335C600.865 230.335 597.684 232.324 595.297 236.301C592.911 240.279 591.706 246.233 591.684 254.165C591.684 259.529 592.218 264.006 593.286 267.597C594.377 271.165 595.911 273.847 597.888 275.642C599.865 277.415 602.184 278.301 604.843 278.301Z" fill="#01325C"/>
</svg>
