<?xml version="1.0" encoding="UTF-8"?>
<svg version="1.1" xmlns="http://www.w3.org/2000/svg" width="2815" height="1448">
<path d="M0 0 C869.55 0 1739.1 0 2635 0 C2626.36124156 10.07855151 2617.62826743 19.64640399 2607.75 28.50390625 C2605.34010534 30.69129643 2603.030454 32.9294599 2600.75 35.25 C2597.00032343 39.04559098 2593.05616077 42.53661149 2589 46 C2587.94635615 46.90594952 2586.89299323 47.81222583 2585.83984375 48.71875 C2582.83307348 51.30469957 2579.81963224 53.88273991 2576.80371094 56.45800781 C2575.08795684 57.92480572 2573.37582907 59.39574033 2571.6640625 60.8671875 C2564.91596466 66.64836333 2558.02240622 72.19686948 2550.92578125 77.546875 C2548.75881022 79.1819931 2546.59846438 80.8257027 2544.4375 82.46875 C2510.25066801 108.37609116 2474.26028968 131.76620886 2437 153 C2435.96069336 153.59248535 2434.92138672 154.1849707 2433.85058594 154.79541016 C2359.74494422 196.86544738 2281.1707538 230.7807731 2185 264 C2184.04667786 264.32335327 2183.09335571 264.64670654 2182.11114502 264.9798584 C2130.06745539 282.61009218 2077.30249341 297.67733724 2024 311 C2023.00663635 311.24925232 2022.01327271 311.49850464 2020.98980713 311.75531006 C1930.16142687 334.53015998 1837.82111499 351.01969911 799 350 C797.87752869 349.81435486 796.75505737 349.62870972 795.59857178 349.43743896 C707.87309594 334.87222245 620.72999111 315.67831395 458 267 C457.15409302 266.72089783 456.30818604 266.44179565 455.43664551 266.15423584 C376.3324891 240.00004121 298.07546902 208.06701611 215 163 C213.91557617 162.40348633 212.83115234 161.80697266 211.71386719 161.19238281 C197.62547443 153.42973286 183.69987114 145.43024788 170 137 C169.2678125 136.55043945 168.535625 136.10087891 167.78125 135.63769531 C156.93166079 128.94872982 146.2992235 121.9326378 135.6875 114.875 C135.06159973 114.45951904 134.43569946 114.04403809 133.79083252 113.6159668 C124.72584213 107.59228619 115.81937812 101.37747352 107 95 C106.1349585 94.37641602 105.26991699 93.75283203 104.37866211 93.11035156 C93.8752613 85.51256649 83.66852469 77.63349001 73.67626953 69.37646484 C71.43236688 67.53388938 69.15479002 65.73538319 66.875 63.9375 C56.78266777 55.87718097 47.13354764 47.31390946 37.67138672 38.52807617 C36.42290978 37.38664802 35.16204271 36.25874504 33.89501953 35.13793945 C27.07587453 29.09272099 20.57826974 22.76447535 14.13720703 16.32250977 C12.34815235 14.53568583 10.55117757 12.75707043 8.75390625 10.97851562 C7.61409697 9.84163324 6.47475567 8.70428143 5.3359375 7.56640625 C4.79858978 7.03624405 4.26124207 6.50608185 3.70761108 5.95985413 C0 2.22888073 0 2.22888073 0 0 Z " fill="#FED400" transform="translate(7,1057)"/>
<path d="M0 0 C5.40693833 0.00754173 10.81380329 0.00480877 16.22073895 -0.00360405 C49.37150607 -0.05380754 82.49152509 0.14990725 115.62796551 1.19073188 C116.63324543 1.22225428 116.63324543 1.22225428 117.65883404 1.25441349 C142.19040537 2.02954796 166.72748691 2.97650949 191.23343426 4.35088813 C192.47975628 4.42021553 193.7260783 4.48954292 195.01016766 4.56097114 C267.51226099 8.66774091 339.85087882 15.054816 528.95218426 41.25713813 C530.01084698 41.4320478 531.0695097 41.60695747 532.16025311 41.78716743 C591.54792232 51.62972379 650.47594273 63.99285688 708.95218426 78.25713813 C709.94832745 78.49972358 710.94447064 78.74230903 711.97079998 78.99224555 C759.46913414 90.5838199 806.43081366 104.23617229 852.95218426 119.25713813 C853.87279644 119.55426704 854.79340863 119.85139595 855.74191815 120.15752876 C906.05519171 136.42543901 955.47079407 155.14449929 1003.95218426 176.25713813 C1004.56906109 176.52550483 1005.18593792 176.79387153 1005.82150799 177.07037055 C1025.4405553 185.61650951 1044.72145943 194.80035489 1063.91464764 204.25463569 C1065.92904213 205.24575181 1067.94500609 206.23360182 1069.9614616 207.22051704 C1085.70090004 214.92934239 1101.14722806 223.00002741 1116.33206707 231.76348579 C1119.69116744 233.67841088 1123.0866182 235.52118999 1126.48758465 237.36040962 C1155.44871696 253.03872444 1183.12131905 271.19835001 1209.95218426 290.25713813 C1210.76268231 290.83060981 1211.57318035 291.40408149 1212.40823895 291.9949311 C1237.7678147 309.96806909 1262.26222428 329.42136841 1285.03812176 350.58916938 C1286.5255628 351.95099543 1288.0158835 353.31109422 1289.55472332 354.61456001 C1296.38009364 360.4060063 1302.63112171 366.78547998 1308.9458366 373.12041938 C1310.97154528 375.15155098 1313.00262485 377.17720412 1315.03421551 379.20245063 C1316.31969308 380.48858789 1317.60486101 381.77503472 1318.88968426 383.06182563 C1319.49892742 383.66904457 1320.10817059 384.2762635 1320.73587567 384.90188301 C1324.95218426 389.1421479 1324.95218426 389.1421479 1324.95218426 390.25713813 C455.40218426 390.25713813 -414.14781574 390.25713813 -1310.04781574 390.25713813 C-1307.46116916 385.9460605 -1304.86459448 382.79561165 -1301.34859699 379.32745063 C-1300.79471805 378.77402992 -1300.24083912 378.2206092 -1299.67017597 377.65041816 C-1298.50000205 376.4832551 -1297.32740887 375.3185131 -1296.15255207 374.15606391 C-1294.37819203 372.39983179 -1292.61183744 370.63585946 -1290.84664387 368.87041938 C-1285.61681619 363.65716385 -1280.37522586 358.51579888 -1274.75411457 353.72051704 C-1272.00169885 351.35995332 -1269.37950095 348.86231375 -1266.73531574 346.38213813 C-1261.92026131 341.90293654 -1256.9824973 337.64944043 -1251.85250324 333.53057563 C-1249.30469383 331.46535965 -1246.80488125 329.35738128 -1244.31417316 327.22442329 C-1237.96620442 321.79140051 -1231.46903943 316.60831139 -1224.79732746 311.57696235 C-1222.95156604 310.18452777 -1221.11106282 308.78530482 -1219.27047199 307.38604438 C-1179.75055283 277.43405392 -1137.58067286 250.95244806 -1094.04781574 227.25713813 C-1093.07521808 226.72572212 -1092.10262043 226.1943061 -1091.10055012 225.64678657 C-1061.6430922 209.58481487 -1031.67338851 194.7060188 -1000.99465412 181.11987007 C-999.10688647 180.28331504 -997.22051611 179.44368299 -995.33443683 178.60332954 C-907.97664773 139.78681362 -816.51319743 109.85270901 -101.70797199 1.18682563 C-101.01811207 1.16523289 -100.32825214 1.14364015 -99.61748737 1.12139308 C-66.41210123 0.09038796 -33.21897768 -0.0516856 0 0 Z " fill="#FED400" transform="translate(1317.0478157401085,-0.25713813304901123)"/>
<path d="M0 0 C45.54 0 91.08 0 138 0 C147.14485054 22.86212635 147.14485054 22.86212635 151.06982422 33.5378418 C153.05948139 38.93962566 155.05928851 44.33760359 157.0625 49.734375 C157.44074921 50.75351486 157.81899841 51.77265472 158.20870972 52.82267761 C163.43197692 66.87702135 168.73170302 80.90268682 174.02384186 94.93120193 C176.57630987 101.69742827 179.12802258 108.46393953 181.6796875 115.23046875 C181.95574703 115.96248442 182.23180656 116.69450008 182.51623154 117.44869804 C187.35992462 130.29323425 192.18566593 143.14442916 197 156 C204.24459761 175.34324692 211.52553563 194.67268629 218.8125 214 C226.72743126 234.99287873 234.62925864 255.99050242 242.5 277 C250.23841303 297.6548445 258.0010444 318.30047149 265.77841187 338.94067383 C266.60619038 341.13757969 267.43384698 343.33453144 268.26147461 345.53149414 C275.48192827 364.69745154 282.72752634 383.8537185 290 403 C292.9235611 399.38278193 295.6062398 395.71326836 298.18359375 391.83984375 C298.58722641 391.23434692 298.99085907 390.6288501 299.40672302 390.00500488 C300.75273698 387.98410305 302.09518696 385.96086159 303.4375 383.9375 C304.39915414 382.49155322 305.36090808 381.0456728 306.32275391 379.59985352 C315.81758005 365.31579322 325.24604198 350.98781018 334.67749023 336.66186523 C341.33741283 326.5470454 348.01692453 316.44683687 354.75195312 306.38183594 C361.67652534 296.01691396 368.52002113 285.59851201 375.375 275.1875 C385.45447463 259.88064379 395.56554703 244.59675716 405.75341797 229.36181641 C409.75818648 223.37122717 413.75241028 217.37359472 417.74874878 211.37738037 C419.91814782 208.12248808 422.08798956 204.86789096 424.2578125 201.61328125 C425.50520833 199.7421875 426.75260417 197.87109375 428 196 C423.68928533 187.7240966 418.51856135 180.01935841 413.375 172.25 C412.43812269 170.82949765 411.50160526 169.40875789 410.56542969 167.98779297 C408.64675335 165.07599896 406.72669894 162.16512127 404.80566406 159.25488281 C400.99869967 153.48484526 397.21061452 147.70247453 393.42437744 141.91882324 C392.24532835 140.1178642 391.0658388 138.31719435 389.88623047 136.51660156 C384.05487721 127.61484621 378.23109504 118.70814855 372.40869141 109.80053711 C364.75042487 98.08564644 357.07886015 86.3794789 349.40722656 74.67333984 C347.01861227 71.02849584 344.63034694 67.38342329 342.2421875 63.73828125 C341.85026215 63.14008072 341.45833679 62.54188019 341.05453491 61.92555237 C339.08684788 58.92221263 337.11926764 55.91880301 335.15185547 52.9152832 C331.47980467 47.30964389 327.80680407 41.70463427 324.13037109 36.10186768 C322.41539181 33.48816401 320.70096274 30.87409966 318.98657227 28.26000977 C318.17808889 27.02757143 317.36934329 25.79530506 316.56030273 24.56323242 C314.03259682 20.71375251 311.51351969 16.85876691 309 13 C308.30712891 11.94200195 307.61425781 10.88400391 306.90039062 9.79394531 C306.25779297 8.80233398 305.61519531 7.81072266 304.953125 6.7890625 C304.09702637 5.47349365 304.09702637 5.47349365 303.22363281 4.13134766 C302 2 302 2 302 0 C319.88001346 -0.56230351 337.75771565 -0.9846233 355.64467812 -1.24349213 C363.9516827 -1.36692817 372.25317668 -1.53492767 380.55664062 -1.81054688 C387.80019152 -2.05086807 395.039754 -2.204831 402.2871803 -2.25812387 C406.12233123 -2.28926579 409.94608295 -2.36149831 413.77754593 -2.53752136 C437.00231776 -3.56394229 437.00231776 -3.56394229 443.64344406 2.35663605 C448.1935593 8.11727815 451.18496532 14.41927089 453.86880589 21.21752357 C455.3012736 24.74106351 457.08603289 27.81727107 459.0859375 31.046875 C460.18301949 32.94749673 461.27939054 34.84852904 462.375 36.75 C463.29043579 38.33723877 463.29043579 38.33723877 464.22436523 39.95654297 C469.1985422 48.58941208 474.1375297 57.24213775 479.07305908 65.89712524 C484.31395591 75.08464884 489.61857996 84.23337088 494.96166992 93.36181641 C500.71472753 103.19922017 506.36787968 113.09297214 512 123 C516.51181116 116.52535561 520.36955794 109.84349578 524.0625 102.875 C528.41033035 94.75950799 532.82410924 86.69095973 537.375 78.6875 C542.13183507 70.31807083 546.83404477 61.92044652 551.5 53.5 C556.24539873 44.94391152 561.00565727 36.39674643 565.8125 27.875 C566.29074219 27.02486328 566.76898437 26.17472656 567.26171875 25.29882812 C568.22204243 23.6000934 569.21475082 21.91924831 570.23936462 20.25849915 C571.63580345 17.67403743 572.52217785 15.528125 573.42115784 12.77885437 C575.34898809 7.65131628 577.52836438 3.3285845 582 0 C591.04339109 -2.98981935 601.25868439 -2.03242374 610.67822504 -1.72369695 C614.490692 -1.61684319 618.30342378 -1.60739554 622.11715698 -1.58726501 C629.32609524 -1.53458654 636.53060953 -1.3953361 643.73760593 -1.22432369 C651.94745272 -1.03377802 660.15752002 -0.94071117 668.36903024 -0.85550129 C685.24857232 -0.67817661 702.12381741 -0.37950836 719 0 C718.30688032 2.9685303 717.44825489 5.19672406 715.84765625 7.80078125 C715.40639404 8.52233398 714.96513184 9.24388672 714.51049805 9.98730469 C714.03265869 10.75461914 713.55481934 11.52193359 713.0625 12.3125 C712.31770386 13.5195459 712.31770386 13.5195459 711.55786133 14.75097656 C708.14082636 20.25520281 704.60659275 25.66882285 700.98046875 31.03686523 C697.24194181 36.58715105 693.64573717 42.22348837 690.0625 47.875 C685.94323265 54.37176445 681.81433923 60.86066426 677.625 67.3125 C670.36102959 78.50593764 663.1870498 89.7570907 656 101 C640.28858218 125.57782407 640.28858218 125.57782407 633.22143555 136.47070312 C629.12135898 142.79701395 625.06066926 149.14834505 621 155.5 C612.10732623 169.40576204 603.20020848 183.29522962 594 197 C600.22812322 206.90912843 606.68021926 216.66864637 613.125 226.4375 C614.31476829 228.24214068 615.50446399 230.04682921 616.6940918 231.8515625 C618.55692002 234.67745179 620.41986664 237.50326266 622.28318787 240.3288269 C626.67527792 246.98910983 631.06320195 253.6521227 635.44921875 260.31640625 C646.9589729 277.80138486 658.49100437 295.27009392 670.12023926 312.6758728 C676.47220974 322.18477892 682.77032873 331.72630199 689.01391602 341.30688477 C696.36738536 352.58359073 703.77789411 363.82262594 711.1875 375.0625 C711.82736847 376.03337555 712.46723694 377.0042511 713.12649536 378.00454712 C714.97333105 380.80662934 716.82055969 383.60845202 718.66796875 386.41015625 C719.21736115 387.24359558 719.76675354 388.07703491 720.33279419 388.93572998 C720.85872162 389.73303528 721.38464905 390.53034058 721.92651367 391.35180664 C722.43080902 392.1180838 722.93510437 392.88436096 723.4546814 393.67385864 C724.53420426 395.29884573 725.62608053 396.91566366 726.72720337 398.52609253 C727.2778244 399.33402252 727.82844543 400.14195251 728.39575195 400.97436523 C729.14535942 402.06272926 729.14535942 402.06272926 729.91011047 403.17308044 C731 405 731 405 731 407 C712.76361157 407.60950488 694.52988948 408.0668335 676.28549194 408.34711647 C667.81217554 408.48077191 659.34521104 408.6626246 650.87597656 408.96142578 C643.48663929 409.22200126 636.10189905 409.38861585 628.70809555 409.44630086 C624.79609981 409.48000584 620.89724053 409.5579949 616.98950195 409.74898148 C593.39975199 410.85707249 593.39975199 410.85707249 586.18640137 404.53343964 C581.16868868 398.38830662 577.82771003 391.69371613 574.61883545 384.44395065 C571.89904668 378.65780461 568.43603465 373.38439483 565 368 C563.65878981 365.83808352 562.32951495 363.66915542 561 361.5 C560.34 360.4275 559.68 359.355 559 358.25 C553 348.5 553 348.5 550.99975586 345.24951172 C549.66734531 343.08440558 548.3348259 340.91936644 547.00219727 338.75439453 C543.65384618 333.31439786 540.30743716 327.87322414 536.96484375 322.4296875 C528.04526423 307.90949192 519.05468391 293.43631561 510 279 C505.33753392 285.85752139 500.95181538 292.864512 496.625 299.9375 C495.92481871 301.07929137 495.22445671 302.22097194 494.52392578 303.36254883 C493.07193687 305.72892901 491.62071838 308.09577924 490.16992188 310.46289062 C487.41245154 314.96003931 484.64362428 319.4501786 481.87573242 323.94091797 C475.57610937 334.16329593 469.31125224 344.40595588 463.07763672 354.66870117 C460.31054377 359.21970608 457.53389012 363.76423552 454.73046875 368.29296875 C454.22769106 369.10678625 453.72491338 369.92060374 453.2069 370.75908238 C452.13832634 372.47498393 451.05914659 374.18437632 449.9644686 375.88374323 C447.04233088 380.46535368 444.47287356 385.00748867 442.239645 389.9648447 C435.08258877 405.02268252 435.08258877 405.02268252 428.30481386 408.30535769 C420.44759788 410.38251898 412.40060133 409.88372766 404.35009766 409.61108398 C401.65787265 409.60458718 398.96708918 409.60724153 396.27503967 409.6212616 C390.50127679 409.6332633 384.73353841 409.56178692 378.96129227 409.43179131 C370.61694229 409.24399328 362.27547338 409.18488704 353.92923956 409.1560675 C340.38639979 409.10585862 326.84676543 408.95316901 313.30566406 408.73510742 C300.16031825 408.52364051 287.01584632 408.36101543 273.86914062 408.26342773 C273.05736896 408.25738509 272.2455973 408.25134245 271.40922649 408.2451167 C267.33636938 408.21509851 263.26350614 408.18603379 259.19063878 408.15744293 C225.45810206 407.91941474 191.72944545 407.51468799 158 407 C156.22743721 401.27494174 154.45500767 395.54984225 152.68269348 389.82470703 C152.08167487 387.88328987 151.48062192 385.94188333 150.87953186 384.00048828 C147.47445038 373.00270079 144.07141977 362.00432134 140.6875 351 C140.40563843 350.08814941 140.12377686 349.17629883 139.83337402 348.23681641 C138 342.2311088 138 342.2311088 138 340 C91.47 340.33 44.94 340.66 -3 341 C-8.61 359.81 -14.22 378.62 -20 398 C-21.485 402.455 -21.485 402.455 -23 407 C-65.57 407 -108.14 407 -152 407 C-148.62459818 395.74866059 -148.62459818 395.74866059 -146.68530273 390.53393555 C-146.02914223 388.76279388 -146.02914223 388.76279388 -145.35972595 386.95587158 C-144.88443513 385.68278831 -144.40905485 384.40973844 -143.93359375 383.13671875 C-143.42652378 381.77220391 -142.91969982 380.40759762 -142.4131012 379.04290771 C-141.04483958 375.35987966 -139.67239847 371.67842245 -138.2989502 367.9973259 C-137.43022891 365.66800386 -136.56269354 363.33824359 -135.69555664 361.0083313 C-123.96990759 329.50316251 -112.1221619 298.04422964 -100.24560547 266.59570312 C-95.11553623 253.01141183 -89.99337281 239.42413921 -84.87240601 225.83641434 C-84.06245461 223.68737958 -83.25242264 221.53837521 -82.44238281 219.38937378 C-73.53889848 195.76759597 -64.66960338 172.13309139 -55.81158447 148.49423218 C-46.38855971 123.34817957 -36.93274539 98.21461452 -27.453125 73.08984375 C-18.26847474 48.73899426 -9.1382051 24.36854693 0 0 Z M67 109 C66.78354324 109.71121506 66.56708649 110.42243011 66.34407043 111.15519714 C66.03434799 112.1728566 65.72462555 113.19051605 65.40551758 114.23901367 C65.05211807 115.40018707 64.69871857 116.56136047 64.33460999 117.75772095 C63.52418565 120.42054564 62.71374901 123.08336658 61.90330505 125.7461853 C59.83505309 132.5417327 57.76687716 139.33730319 55.69901085 146.13296795 C54.48818995 150.11209719 53.27731201 154.09120908 52.06640625 158.0703125 C51.81994228 158.88020945 51.57347832 159.69010639 51.31954575 160.52454567 C47.78452152 172.14048936 44.24663472 183.75555795 40.70680809 195.37003899 C39.25457951 200.13531672 37.80287671 204.90075465 36.35119724 209.66619968 C34.95712087 214.24232926 33.56217236 218.81819186 32.1666193 223.39387131 C31.2983639 226.24142024 30.43093532 229.08922054 29.56373787 231.93709183 C29.16134638 233.25792717 28.75860789 234.57865685 28.35549736 235.89927292 C27.80541568 237.70153012 27.25667736 239.50419717 26.70800781 241.30688477 C26.40050598 242.31566177 26.09300415 243.32443878 25.77618408 244.36378479 C25.12940783 246.56048197 24.55539059 248.77843764 24 251 C52.71 251 81.42 251 111 251 C110.27335371 245.91347595 109.37230471 241.44361005 107.84545898 236.61083984 C107.62687697 235.90393761 107.40829496 235.19703537 107.18308926 234.46871185 C106.45902213 232.13122404 105.72751477 229.79613358 104.99609375 227.4609375 C104.47963543 225.79777835 103.96370665 224.13445468 103.44827271 222.47097778 C102.06865387 218.0224889 100.68299044 213.57590525 99.29613113 209.12966919 C97.00428578 201.77694749 94.72334432 194.42082975 92.44200706 187.06484222 C91.87048565 185.22213272 91.29875986 183.3794866 90.72683144 181.53690338 C87.04397417 169.66918641 83.4064059 157.78950963 79.8515625 145.8828125 C79.47554398 144.62520111 79.09952545 143.36758972 78.71211243 142.0718689 C76.99637202 136.32628403 75.2908035 130.57789287 73.59741211 124.82568359 C73.00396479 122.83163986 72.4103107 120.83765764 71.81640625 118.84375 C71.55610626 117.9467337 71.29580627 117.04971741 71.02761841 116.1255188 C70.41044868 114.0651755 69.71364516 112.02894642 69 110 C68.34 109.67 67.68 109.34 67 109 Z " fill="#FEFEFE" transform="translate(1929,530)"/>
<path d="M0 0 C39.6 0 79.2 0 120 0 C132.69092503 65.76206605 132.69092503 65.76206605 138.37513518 95.89582562 C139.21371371 100.33996484 140.05364093 104.7838492 140.89338684 109.22776794 C142.46283769 117.53428773 144.03118545 125.84101533 145.59906989 134.1478309 C147.39281518 143.65095832 149.18789225 153.15383404 150.98304594 162.65669549 C154.65677912 182.10419654 158.32895444 201.55199145 162 221 C164.23081819 217.65377272 165.12995244 214.4504836 166.15698242 210.62304688 C166.36465335 209.8666114 166.57232428 209.11017593 166.78628826 208.33081818 C167.48115717 205.79483727 168.16823768 203.2568104 168.85546875 200.71875 C169.34967838 198.9096911 169.8444109 197.10077498 170.33963013 195.29199219 C171.40334144 191.40308512 172.46376341 187.51330183 173.52163696 183.62280273 C175.19721426 177.46119175 176.88029946 171.30164931 178.56518555 165.14257812 C178.84824334 164.10780083 179.13130114 163.07302353 179.42293644 162.00688934 C179.99928129 159.89997774 180.57564813 157.79307214 181.15203667 155.68617249 C182.02943979 152.47805334 182.9061565 149.26974726 183.7827301 146.06140137 C189.57656609 124.86055343 195.43573808 103.67798911 201.3125 82.5 C201.67287542 81.20112728 201.67287542 81.20112728 202.04053116 79.87601471 C204.1244985 72.36494555 206.20889424 64.85399549 208.2950592 57.34353638 C210.57708569 49.12787348 212.85595221 40.91135889 215.12889099 32.69317627 C216.28686565 28.50787464 217.44735832 24.323275 218.60873413 20.13891602 C219.11200075 18.32363658 219.61417175 16.50805296 220.11514282 14.69213867 C220.76904086 12.32255012 221.42687873 9.95409485 222.0859375 7.5859375 C222.6126001 5.68400635 222.6126001 5.68400635 223.14990234 3.74365234 C224 1 224 1 225 0 C226.54353131 -0.09584998 228.09145108 -0.1218807 229.63795471 -0.12025452 C230.64061371 -0.12162918 231.64327271 -0.12300385 232.67631531 -0.12442017 C234.34002922 -0.11902725 234.34002922 -0.11902725 236.03735352 -0.11352539 C237.19817444 -0.11367142 238.35899536 -0.11381744 239.55499268 -0.1139679 C243.41298252 -0.11326817 247.27092478 -0.10547298 251.12890625 -0.09765625 C253.79548728 -0.09579228 256.46206564 -0.09431912 259.12864685 -0.09336853 C265.4432888 -0.09025548 271.75791351 -0.08204244 278.07254785 -0.07201904 C285.25985633 -0.0608571 292.44716561 -0.05534725 299.6344806 -0.05032361 C314.42299589 -0.0398598 329.21149765 -0.02226086 344 0 C345.90413787 5.58040323 347.67494051 11.17036632 349.23876953 16.85522461 C349.44341072 17.59167174 349.64805191 18.32811888 349.85889435 19.08688259 C350.53573546 21.52476506 351.20926929 23.96354827 351.8828125 26.40234375 C352.37050811 28.16140446 352.85841875 29.92040558 353.3465271 31.67935181 C354.66660161 36.43851947 355.98386229 41.19846183 357.30062866 45.95854568 C358.68767692 50.97079343 360.07730926 55.98232453 361.46679688 60.99389648 C363.2036195 67.25875333 364.94022059 73.52367116 366.67572021 79.78889465 C370.74212237 94.46821715 374.81745966 109.14503594 378.8984375 123.8203125 C379.46120254 125.84434211 380.02395691 127.86837469 380.58670044 129.89241028 C383.82381465 141.53521613 383.82381465 141.53521613 387.06207275 153.17770386 C393.43886033 176.10121607 399.76610158 199.03719268 406 222 C408.37788286 213.00136602 410.24347393 203.95002587 411.95166016 194.80371094 C412.23275798 193.31328172 412.51416995 191.82291173 412.79586792 190.33259583 C413.55566062 186.30808053 414.31107555 182.28275488 415.06567049 178.25726223 C415.86766274 173.98313856 416.67374144 169.70978553 417.4793396 165.43634033 C419.01198682 157.30274862 420.54097759 149.16847402 422.06865823 141.03394818 C423.77210432 131.96451229 425.4797099 122.89586136 427.18765306 113.82727146 C434.58325798 74.56348037 434.58325798 74.56348037 441.93261719 35.29101562 C442.36142544 32.99407687 442.79024763 30.69714071 443.21908569 28.40020752 C443.98019415 24.32314591 444.7385332 20.24558391 445.49502563 16.16766357 C445.82129763 14.41807344 446.14765616 12.66849945 446.47412109 10.91894531 C446.61694393 10.1443824 446.75976677 9.36981949 446.90691757 8.57178497 C447.45749402 5.63130747 448.05248445 2.84254664 449 0 C488.27 0 527.54 0 568 0 C567.30645421 6.93545789 566.42665342 13.3819146 564.91577148 20.12524414 C564.70295249 21.09677807 564.4901335 22.068312 564.27086544 23.06928635 C563.55970747 26.30913173 562.8404012 29.54711128 562.12109375 32.78515625 C561.60510903 35.12779595 561.08963041 37.47054717 560.57461548 39.81340027 C559.45892771 44.88331618 558.3397094 49.95243903 557.21731567 55.02087402 C555.56011507 62.50444708 553.90950464 69.98946264 552.26029336 77.47479987 C549.52014367 89.91078849 546.77480567 102.34562602 544.02636719 114.77978516 C541.36030244 126.84137512 538.69656053 138.90347395 536.03613281 150.96630859 C535.87282982 151.70674707 535.70952683 152.44718554 535.54127526 153.21006155 C534.71539653 156.9547846 533.88956884 160.69951891 533.06377029 164.44425964 C531.40031998 171.98746551 529.73662259 179.53061688 528.07275391 187.07373047 C527.90748569 187.82297303 527.74221748 188.57221559 527.57194114 189.34416246 C525.0658272 200.70525222 522.55768954 212.06589406 520.04833984 223.42626953 C519.71348272 224.94228212 519.37862669 226.45829495 519.04377174 227.97430801 C518.87800727 228.72478385 518.71224279 229.47525969 518.54145515 230.24847722 C517.70470871 234.03674272 516.86797163 237.82501028 516.03125 241.61328125 C515.86602231 242.36134474 515.70079461 243.10940823 515.53056002 243.8801403 C510.77822797 265.3966972 506.03559008 286.91536648 501.30295712 308.43626487 C500.13337684 313.75470259 498.96337506 319.07304741 497.79307556 324.3913269 C497.54999775 325.49598893 497.54999775 325.49598893 497.30200928 326.62296736 C496.65557294 329.56066764 496.00913046 332.49836657 495.36264217 335.43605542 C493.49152942 343.93865677 491.62202492 352.44160787 489.75524032 360.94516057 C488.47023919 366.7978994 487.18256609 372.65004693 485.89389038 378.50197792 C485.36747244 380.89470066 484.84199438 383.2876304 484.31750488 385.6807766 C483.60610093 388.92631358 482.89148137 392.17112574 482.17602539 395.41577148 C481.96799317 396.36868702 481.75996096 397.32160255 481.54562473 398.30339432 C481.35497912 399.16482922 481.16433352 400.02626411 480.96791077 400.9138031 C480.80391313 401.66017249 480.63991549 402.40654188 480.47094822 403.17552853 C480 405 480 405 479 407 C438.08 407 397.16 407 355 407 C350.71137875 392.29615573 346.44633724 377.59565503 342.33203125 362.84375 C341.81403963 360.99032701 341.2959394 359.13693437 340.77774048 357.28356934 C339.4048574 352.37192827 338.03372529 347.45980015 336.66303635 342.54754639 C335.51112222 338.42013694 334.35818086 334.29301469 333.20528889 330.1658783 C325.12194447 301.22766929 317.06529458 272.28207764 309.03149414 243.33007812 C308.73701055 242.26882595 308.73701055 242.26882595 308.4365778 241.18613434 C308.1433924 240.12955753 308.1433924 240.12955753 307.84428406 239.05163574 C307.45217932 237.63859039 307.06007422 236.22554515 306.66796875 234.8125 C306.3802381 233.77555748 306.3802381 233.77555748 306.08669472 232.71766663 C301.48689018 216.1416492 296.8696755 199.57048868 292.25 183 C292.06210278 182.32600159 291.87420555 181.65200317 291.68061447 180.95758057 C289.45426222 172.97157556 287.22744704 164.98569972 285 157 C282.90538628 160.14192057 282.16796717 162.51705822 281.18188477 166.14501953 C280.92372876 167.08563547 280.92372876 167.08563547 280.66035748 168.04525375 C280.08226688 170.15641467 279.51195374 172.26960165 278.94140625 174.3828125 C278.52598334 175.90494054 278.11001404 177.42691954 277.69354248 178.94876099 C276.78988377 182.25431526 275.88942604 185.56071884 274.99136353 188.86779785 C272.78265001 196.99947015 270.55594982 205.12622671 268.33081627 213.25341797 C267.5367016 216.15435133 266.74318311 219.0554474 265.94966125 221.95654297 C259.80583424 244.40673776 253.56153431 266.82890641 247.3125 289.25 C246.73903556 291.30797082 246.16557973 293.36594404 245.59213257 295.42391968 C242.793022 305.46868389 239.9925096 315.51305643 237.19091797 325.55712891 C234.87023745 333.87715282 232.55211355 342.19788516 230.23579693 350.51912498 C228.41087304 357.07492908 226.58459448 363.63035446 224.75701618 370.18541908 C223.72035669 373.90375169 222.68428746 377.62224599 221.64981079 381.34118652 C220.5370367 385.34137349 219.4210538 389.34065781 218.3046875 393.33984375 C217.9800502 394.50867599 217.6554129 395.67750824 217.32093811 396.88175964 C217.02666428 397.93390152 216.73239044 398.9860434 216.42919922 400.07006836 C216.1753244 400.98106796 215.92144958 401.89206757 215.65988159 402.83067322 C215 405 215 405 214 407 C173.08 407 132.16 407 90 407 C85.40584348 388.62337391 85.40584348 388.62337391 83.75978088 381.18254089 C83.56612161 380.31530102 83.37246233 379.44806116 83.17293459 378.55454129 C82.53595811 375.69979367 81.90188815 372.84440904 81.26782227 369.98901367 C80.80194964 367.89845289 80.33588604 365.80793465 79.86964989 363.71745491 C78.86185869 359.19695076 77.85535514 354.67616258 76.84986687 350.15514565 C75.21427452 342.80100216 73.57591447 335.44747688 71.93714905 328.09403992 C70.16733285 320.15197004 68.39771042 312.20985731 66.62906933 304.26752567 C62.17086798 284.24794319 57.70434456 264.23022777 53.23388672 244.21337891 C51.90419411 238.25946187 50.57454073 232.30553607 49.2449646 226.35159302 C49.07924533 225.60949114 48.91352606 224.86738927 48.74278499 224.10279946 C44.3566841 204.46100826 39.97639518 184.81792087 35.59699001 165.17463583 C34.74869917 161.36975189 33.90036392 157.56487785 33.05200195 153.76000977 C32.88365112 153.00495702 32.71530028 152.24990427 32.5418479 151.47197114 C29.74974915 138.94994003 26.95372673 126.42878773 24.15648239 113.9079052 C21.23181757 100.81627491 18.31114245 87.72375929 15.39425188 74.63039464 C13.61868239 66.6607796 11.84006894 58.69185727 10.05734081 50.72384044 C8.71152904 44.70709869 7.37127099 38.68913263 6.03315353 32.67067528 C5.48511269 30.20989002 4.93524671 27.74951044 4.38344383 25.28956604 C3.63326555 21.94401307 2.88958757 18.59708045 2.14756775 15.24971008 C1.9272729 14.27455187 1.70697804 13.29939365 1.48000759 12.29468518 C1.28293793 11.39934983 1.08586827 10.50401447 0.88282681 9.58154774 C0.7110751 8.81181151 0.5393234 8.04207529 0.36236709 7.24901372 C0 5 0 5 0 0 Z " fill="#FEFEFE" transform="translate(1209,530)"/>
<path d="M0 0 C0.76876465 0.27682617 1.5375293 0.55365234 2.32958984 0.83886719 C25.7208793 9.41644608 45.97782085 21.73726438 64 39 C64.92941406 39.85464844 65.85882812 40.70929687 66.81640625 41.58984375 C79.9484121 53.92040624 89.80911419 69.04500801 98 85 C98.31130859 85.598125 98.62261719 86.19625 98.94335938 86.8125 C115.46311035 118.93619486 120.59008756 155.73517924 120.39111328 191.45361328 C120.37503947 194.8666192 120.39107297 198.27843581 120.41015625 201.69140625 C120.4643513 257.94990206 105.78394884 310.32573955 67 352 C66.34902344 352.71671875 65.69804688 353.4334375 65.02734375 354.171875 C34.80375925 386.08425324 -10.16765613 401.84765476 -53 406 C-53.85754883 406.08612549 -54.71509766 406.17225098 -55.59863281 406.26098633 C-65.85162822 407.18152629 -76.08955683 407.1997871 -86.375 407.1875 C-87.30785828 407.18689575 -88.24071655 407.1862915 -89.20184326 407.18566895 C-103.21865876 407.16102373 -117.09236634 406.90721416 -131 405 C-131.95890137 404.87109375 -132.91780273 404.7421875 -133.90576172 404.609375 C-171.9468473 399.30902055 -209.4690223 386.59064485 -238 360 C-238.63437988 359.40944824 -239.26875977 358.81889648 -239.92236328 358.21044922 C-253.5768572 345.34847732 -264.67658969 331.27679405 -274 315 C-274.65484375 313.87722656 -275.3096875 312.75445313 -275.984375 311.59765625 C-295.46448928 277.3068007 -301.22125507 236.8987126 -301.25 198 C-301.25067474 197.17184784 -301.25134949 196.34369568 -301.25204468 195.490448 C-301.22178004 171.89901912 -298.95167362 148.88199943 -293 126 C-292.66162109 124.69579102 -292.66162109 124.69579102 -292.31640625 123.36523438 C-289.03387893 111.02330255 -284.59561666 99.47128343 -279 88 C-278.68836914 87.35224609 -278.37673828 86.70449219 -278.05566406 86.03710938 C-270.51424707 70.53929795 -260.49539955 56.75293943 -248.43505859 44.47021484 C-247.05717626 43.05857698 -245.70945794 41.61768606 -244.36328125 40.17578125 C-211.84207493 6.09900153 -162.9962507 -9.68138115 -117 -13 C-115.75428223 -13.0925708 -115.75428223 -13.0925708 -114.48339844 -13.18701172 C-76.26166705 -15.84462749 -36.27469476 -13.07088175 0 0 Z M-148 105 C-148.71027344 105.71027344 -149.42054688 106.42054688 -150.15234375 107.15234375 C-172.72924829 131.11592957 -175.9044715 170.07499401 -175.1875 201.4453125 C-173.97799541 234.6613324 -170.26741802 267.26508356 -146 292 C-145.39800781 292.62648438 -144.79601562 293.25296875 -144.17578125 293.8984375 C-127.71207614 309.68359511 -105.22772186 312.54657376 -83.453125 312.26953125 C-62.17517935 311.63618477 -43.475211 303.2505802 -28.8125 287.75 C-7.60027228 262.53385781 -5.77485836 226.12749115 -5.75 194.625 C-5.74899292 193.73837677 -5.74798584 192.85175354 -5.74694824 191.93826294 C-5.75730732 178.44205494 -6.1828351 165.24901338 -9 152 C-9.14985352 151.29214355 -9.29970703 150.58428711 -9.45410156 149.85498047 C-14.56595212 126.76482749 -25.85845296 106.89612757 -45.82421875 93.8984375 C-77.95286499 74.69238329 -121.32500195 78.32500195 -148 105 Z " fill="#FEFEFE" transform="translate(695,537)"/>
<path d="M0 0 C35.475 -0.04125 70.95 -0.0825 107.5 -0.125 C118.66263672 -0.14320801 129.82527344 -0.16141602 141.32617188 -0.18017578 C155.05566406 -0.18920898 155.05566406 -0.18920898 161.5020752 -0.19088745 C165.96270781 -0.1927356 170.42329183 -0.20016947 174.88391113 -0.21115112 C180.60353382 -0.2250421 186.32308758 -0.22895089 192.04272556 -0.22614455 C194.12318593 -0.2267299 196.20364913 -0.23059216 198.28409481 -0.23843026 C240.49968219 -0.38987104 282.16011613 4.82800192 314.1875 34.75 C341.11927529 63.09923714 345.93231453 100.56673027 345.13183594 138.046875 C344.06832263 169.93651855 331.28670233 200.93486998 308 223 C274.63957294 252.98201846 228.40027526 257.24071705 185.49609375 257.09765625 C183.98441607 257.09617975 182.47273787 257.09516342 180.96105957 257.09460449 C175.45319841 257.08943358 169.94534831 257.07547315 164.4375 257.0625 C152.083125 257.041875 139.72875 257.02125 127 257 C127 306.5 127 356 127 407 C85.09 407 43.18 407 0 407 C0 272.69 0 138.38 0 0 Z M127 84 C127 113.37 127 142.74 127 173 C138.1375 173.0928125 138.1375 173.0928125 149.5 173.1875 C151.80806641 173.21481201 154.11613281 173.24212402 156.49414062 173.27026367 C176.5390747 173.40875764 196.33611683 171.88494446 211.64453125 157.44921875 C220.05421902 148.52856261 222.39758949 137.64306451 222.2734375 125.76171875 C221.4586473 114.55253356 216.89043248 103.87948372 208.8984375 95.90234375 C192.59499374 82.33534373 170.44668323 83.58668095 150.5 83.8125 C142.745 83.874375 134.99 83.93625 127 84 Z " fill="#FEFEFE" transform="translate(0,530)"/>
<path d="M0 0 C41.58 0 83.16 0 126 0 C127 1 127 1 127.1241985 3.07986742 C127.12381878 4.00600531 127.12343906 4.93214319 127.12304783 5.88634586 C127.12503888 6.95077256 127.12702993 8.01519926 127.12908131 9.11188132 C127.12616847 10.2957077 127.12325563 11.47953409 127.12025452 12.69923401 C127.12110894 13.9455719 127.12196337 15.1919098 127.12284368 16.47601551 C127.12509098 19.95124764 127.12106418 23.42644925 127.11606562 26.90167749 C127.11176465 30.64334451 127.11320729 34.38500967 127.1139679 38.12667847 C127.11449336 44.61461867 127.11134426 51.10254885 127.10573006 57.59048653 C127.09761803 66.97106352 127.09500014 76.35163564 127.09374207 85.73221575 C127.09155108 100.94997927 127.08488972 116.16773744 127.07543945 131.38549805 C127.06626655 146.17195611 127.05919658 160.95841272 127.05493164 175.74487305 C127.05466364 176.66494347 127.05439565 177.5850139 127.05411953 178.53296524 C127.05204022 185.72805386 127.05008326 192.92314251 127.04816496 200.11823118 C127.03872385 235.41215903 127.01860731 270.7060735 127 306 C191.35 306 255.7 306 322 306 C322 339.33 322 372.66 322 407 C215.74 407 109.48 407 0 407 C0 272.69 0 138.38 0 0 Z " fill="#FEFEFE" transform="translate(882,530)"/>
<path d="M0 0 C24.09 0 48.18 0 73 0 C73 23.43 73 46.86 73 71 C48.91 71 24.82 71 0 71 C0 47.57 0 24.14 0 0 Z " fill="#FEFEFE" transform="translate(627,435)"/>
<path d="M0 0 C24.09 0 48.18 0 73 0 C73 23.43 73 46.86 73 71 C48.91 71 24.82 71 0 71 C0 47.57 0 24.14 0 0 Z " fill="#FEFEFE" transform="translate(509,435)"/>
<path d="M0 0 C20.32286585 -0.67383507 37.38839026 6.63839234 52.0703125 20.33984375 C65.54067862 34.46083578 70.15076509 50.42919812 69.90454102 69.42236328 C69.27245187 87.44478719 62.16139719 103.35140694 48.95117188 115.77978516 C32.69661023 130.00505688 13.40667649 133.46798451 -7.6171875 132.15234375 C-24.06992236 130.19257993 -39.79076742 120.925947 -50.05078125 108.11328125 C-59.51044417 95.39868055 -64.02566875 82.11093377 -63.9296875 66.33984375 C-63.92404785 65.36934082 -63.9184082 64.39883789 -63.91259766 63.39892578 C-63.64245828 47.43395601 -58.15500831 34.17944973 -47.6171875 22.15234375 C-47.04613281 21.47558594 -46.47507812 20.79882812 -45.88671875 20.1015625 C-34.46686744 7.56164049 -16.6002565 0.96628359 0 0 Z M-35.6171875 28.15234375 C-47.26751211 42.16391962 -51.04769336 57.21141604 -49.6171875 75.15234375 C-47.5542969 89.14561835 -39.93951517 101.23698057 -29.16796875 110.1875 C-16.04973122 119.88717013 -2.48320162 121.30682201 13.3828125 120.15234375 C25.81112341 117.90984417 37.72299172 110.13247521 45.3828125 100.15234375 C54.36173141 85.56741588 58.098577 70.21164058 54.6953125 53.15625 C50.70729857 37.98518036 41.90488321 26.10769373 28.3828125 18.15234375 C6.56306379 7.40979876 -18.0535305 11.23809927 -35.6171875 28.15234375 Z " fill="#FCFCFC" transform="translate(2745.6171875,257.84765625)"/>
<path d="M0 0 C42.41666667 0 42.41666667 0 50.4375 5.25 C56.29504948 11.53615067 56.56236725 17.23250193 56.33984375 25.6171875 C55.78301702 31.15985358 54.46189673 34.9152449 50.1640625 38.5546875 C46.14867559 41.27776598 42.83577265 42.34558632 38 43 C39.45518602 45.3561629 40.91344682 47.71028762 42.375 50.0625 C42.8189209 50.77752686 43.2628418 51.49255371 43.72021484 52.22924805 C47.31912176 57.9906616 51.06441497 63.641385 54.95068359 69.21313477 C58 73.67421718 58 73.67421718 58 77 C53.52929346 77.60505803 49.45552935 77.80199528 45 77 C41.59964889 74.32462941 39.9912375 70.7873426 38 67 C37.16288358 65.5708429 36.3172218 64.1466701 35.46484375 62.7265625 C33.32592003 59.15938351 31.22428237 55.57313147 29.14746094 51.96948242 C27.78654079 49.63362225 26.39088543 47.31814238 25 45 C20.71 44.67 16.42 44.34 12 44 C12 54.89 12 65.78 12 77 C8.04 77 4.08 77 0 77 C0 51.59 0 26.18 0 0 Z M12 11 C12 18.26 12 25.52 12 33 C17.2284375 33.0928125 17.2284375 33.0928125 22.5625 33.1875 C23.64732666 33.21481201 24.73215332 33.24212402 25.84985352 33.27026367 C31.68554627 33.32018727 35.90164639 32.93583047 41 30 C43.8199641 25.77005384 43.79231188 21.96779552 43 17 C40.47323961 13.65374976 38.96066458 12.32022153 35 11 C33.22686149 10.91790208 31.45079225 10.89253706 29.67578125 10.90234375 C28.64775391 10.90556641 27.61972656 10.90878906 26.56054688 10.91210938 C24.95276367 10.92467773 24.95276367 10.92467773 23.3125 10.9375 C21.68731445 10.94426758 21.68731445 10.94426758 20.02929688 10.95117188 C17.35284106 10.96296243 14.67641361 10.98089792 12 11 Z " fill="#FDFDFD" transform="translate(2723,286)"/>
</svg>
