<?xml version="1.0" encoding="UTF-8"?>
<svg version="1.1" xmlns="http://www.w3.org/2000/svg" width="1430" height="735">
<path d="M0 0 C441.54 0 883.08 0 1338 0 C1336.28718079 3.42563841 1335.19438433 5.05368575 1332.5859375 7.64453125 C1331.90660156 8.32193359 1331.22726562 8.99933594 1330.52734375 9.69726562 C1329.81707031 10.39529297 1329.10679688 11.09332031 1328.375 11.8125 C1327.34439453 12.84213867 1327.34439453 12.84213867 1326.29296875 13.89257812 C1321.68856035 18.45811253 1316.93509079 22.79546865 1312 27 C1311.36271973 27.54406494 1310.72543945 28.08812988 1310.06884766 28.64868164 C1289.43803129 46.1289408 1267.2099058 61.17981594 1244 75 C1242.84564453 75.69150146 1242.84564453 75.69150146 1241.66796875 76.39697266 C1168.32051244 120.11047533 1084.85979422 146.37173634 770.875 196.6875 C769.86961182 196.74843842 768.86422363 196.80937683 767.82836914 196.87216187 C760.8873917 197.28716127 753.94478 197.65499236 747 198 C745.58219238 198.07418655 745.58219238 198.07418655 744.13574219 198.14987183 C721.76126531 199.289304 699.36281986 199.18739589 676.96582031 199.18530273 C672.52437204 199.18522214 668.08302838 199.19207197 663.64160156 199.20581055 C623.52061473 199.32776764 583.51353021 198.23657936 543.5 195.1875 C542.3719696 195.10318726 541.24393921 195.01887451 540.08172607 194.93200684 C466.61610793 189.40965318 393.76012578 178.73374719 322 162 C321.25006775 161.82615784 320.5001355 161.65231567 319.72747803 161.47320557 C233.76252173 141.51785332 147.442757 111.058906 32 32 C30.95365463 31.13867911 29.90674781 30.27803997 28.859375 29.41796875 C21.61150861 23.40411636 14.80622467 17.01275884 8.125 10.375 C7.32118896 9.58037354 6.51737793 8.78574707 5.68920898 7.96704102 C4.94872314 7.22252686 4.2082373 6.4780127 3.4453125 5.7109375 C2.78031738 5.04368652 2.11532227 4.37643555 1.43017578 3.68896484 C0 2 0 2 0 0 Z " fill="#FED500" transform="translate(4,536)"/>
<path d="M0 0 C2.3110811 -0.00698283 4.62216203 -0.01402375 6.9332428 -0.02111816 C14.27060185 -0.04037064 21.60793093 -0.04529365 28.9453125 -0.046875 C30.19528645 -0.04746414 31.44526039 -0.04805328 32.73311234 -0.04866028 C69.89737029 -0.06102231 106.90431532 0.21642184 143.98065186 2.97528076 C147.11688306 3.2065593 150.25378176 3.42531032 153.39111328 3.64111328 C216.77901254 8.03973467 279.82080851 16.44054167 342.0703125 29.203125 C342.90421509 29.37330139 343.73811768 29.54347778 344.59729004 29.71881104 C423.09119553 45.77360874 501.36938539 69.27182633 572.80371094 106.04101562 C575.46207 107.403983 578.12993422 108.74765452 580.796875 110.09375 C612.34368514 126.12998346 641.97107029 145.41512587 669.0703125 168.203125 C670.13273525 169.0782188 671.1952393 169.95321389 672.2578125 170.828125 C679.31405171 176.69851838 685.95088395 182.90298837 692.4453125 189.390625 C693.57960693 190.52371094 693.57960693 190.52371094 694.73681641 191.6796875 C700.0703125 197.06880522 700.0703125 197.06880522 700.0703125 198.203125 C258.5303125 198.203125 -183.0096875 198.203125 -637.9296875 198.203125 C-631.1749887 189.19685994 -631.1749887 189.19685994 -628.3359375 186.5625 C-627.7059082 185.97339844 -627.07587891 185.38429687 -626.42675781 184.77734375 C-625.76772461 184.17535156 -625.10869141 183.57335937 -624.4296875 182.953125 C-623.72682617 182.30472656 -623.02396484 181.65632812 -622.29980469 180.98828125 C-620.18611123 179.04890321 -618.06098739 177.12312347 -615.9296875 175.203125 C-615.34123047 174.67138672 -614.75277344 174.13964844 -614.14648438 173.59179688 C-592.55858316 154.2258083 -568.10305347 137.54297701 -542.9296875 123.203125 C-542.26936523 122.82559082 -541.60904297 122.44805664 -540.92871094 122.05908203 C-466.50046509 79.68930656 -385.28863057 52.86973257 -50.9296875 1.203125 C-49.59580569 1.14401585 -49.59580569 1.14401585 -48.23497677 1.08371258 C-32.15157806 0.38087063 -16.09794122 0.03046443 0 0 Z " fill="#FED400" transform="translate(641.9296875,-0.203125)"/>
<path d="M0 0 C23.1 0 46.2 0 70 0 C72.30277899 5.18125272 74.52441957 10.18994577 76.50756836 15.46704102 C77.18752113 17.27042686 77.18752113 17.27042686 77.88121033 19.11024475 C78.36747803 20.40811073 78.8536874 21.70599856 79.33984375 23.00390625 C79.85882741 24.38346255 80.3780442 25.76293117 80.8974762 27.14231873 C82.29050003 30.84364208 83.68019467 34.54620715 85.06924438 38.24902344 C86.53640323 42.15828419 88.00669435 46.06636671 89.4765625 49.97460938 C92.98856155 59.31483589 96.49506077 68.65712234 100 78 C100.3730212 78.99427128 100.3730212 78.99427128 100.75357819 80.00862885 C104.83043061 90.8753915 108.90518002 101.74294195 112.97705078 112.61157227 C120.39836296 132.4167021 127.85292075 152.20925872 135.3125 172 C135.60716156 172.78175598 135.90182312 173.56351196 136.20541382 174.36895752 C139.80283717 183.91292948 143.40103477 193.45660935 147 203 C150.44970526 199.67348141 152.90260488 196.16908237 155.35546875 192.078125 C159.37132264 185.52236224 163.55477248 179.10145617 167.86328125 172.734375 C168.46759979 171.84109497 169.07191833 170.94781494 169.69454956 170.02746582 C171.56511285 167.26688809 173.43844501 164.50820831 175.3125 161.75 C183.17673911 150.16611881 190.98654631 138.55758822 198.58578491 126.7976532 C201.40129846 122.44395007 204.24896314 118.12198516 207.18359375 113.84765625 C207.73724609 113.03232422 208.29089844 112.21699219 208.86132812 111.37695312 C209.95796882 109.7666443 211.06842834 108.1656955 212.18945312 106.57226562 C212.99092773 105.37827148 212.99092773 105.37827148 213.80859375 104.16015625 C214.28095459 103.47574463 214.75331543 102.79133301 215.23999023 102.08618164 C216.23588676 99.96960404 216.23588676 99.96960404 215.3671875 97.60327148 C213.83002984 94.67635861 212.1415251 91.9452017 210.31640625 89.1875 C209.94946152 88.63018188 209.58251678 88.07286377 209.20445251 87.49865723 C207.99456759 85.66302856 206.77850408 83.83157952 205.5625 82 C204.70525384 80.70148555 203.84849128 79.40265172 202.9921875 78.10351562 C201.21297223 75.40500814 199.43168432 72.70788657 197.64892578 70.01171875 C193.9711439 64.44621544 190.31875264 58.8641301 186.66625977 53.28201294 C184.71495397 50.3004712 182.76164461 47.32024255 180.80859375 44.33984375 C177.88947926 39.88458996 174.970991 35.42892653 172.05300903 30.97293091 C170.30938889 28.3103234 168.56558994 25.64783303 166.82177734 22.98535156 C165.99242367 21.71897127 165.16315713 20.45253392 164.33398438 19.18603516 C163.18251402 17.42726313 162.03074039 15.66869005 160.87890625 13.91015625 C160.2247876 12.91121338 159.57066895 11.91227051 158.89672852 10.88305664 C157.54203057 8.82389483 156.15901487 6.78324971 154.75756836 4.75561523 C153 2 153 2 153 0 C162.11835624 -0.30196128 171.2349796 -0.53254885 180.35725403 -0.67355824 C184.59397588 -0.74126038 188.82726586 -0.83295705 193.06201172 -0.98071289 C197.15369954 -1.1225744 201.24210177 -1.19980433 205.33605957 -1.23340416 C206.89298267 -1.25732443 208.44973634 -1.3040492 210.00524902 -1.37449074 C214.88902634 -1.58674102 219.29860703 -1.55043556 224 0 C227.78678223 3.94421414 229.77411817 7.99700102 232 13 C233.02493181 14.82997685 234.06564213 16.65136022 235.1328125 18.45703125 C236.13242919 20.24094486 237.12978025 22.02612968 238.125 23.8125 C243.51636458 33.43757418 249.04564394 42.97456055 254.68212891 52.45825195 C255.24722168 53.41691162 255.81231445 54.37557129 256.39453125 55.36328125 C256.89831299 56.21188721 257.40209473 57.06049316 257.92114258 57.93481445 C259 60 259 60 259 62 C259.66 62 260.32 62 261 62 C261.21140625 61.22269531 261.4228125 60.44539063 261.640625 59.64453125 C263.49412991 54.67522067 266.10019412 50.27133723 268.75 45.6875 C269.92252947 43.63839519 271.09437963 41.58890156 272.265625 39.5390625 C272.87599609 38.47333008 273.48636719 37.40759766 274.11523438 36.30957031 C277.87366172 29.70992769 281.55449933 23.0664198 285.24121094 16.42651367 C285.79067383 15.44142822 286.34013672 14.45634277 286.90625 13.44140625 C287.38384766 12.58232666 287.86144531 11.72324707 288.35351562 10.83813477 C289.16852539 9.43325806 289.16852539 9.43325806 290 8 C290.24747482 7.30989838 290.49494965 6.61979675 290.74992371 5.90878296 C291.88651342 3.29283951 292.7938826 1.83280247 295 0 C300.25342974 -1.15636081 305.45953794 -0.93070022 310.80078125 -0.78125 C312.36302287 -0.76632021 313.92530207 -0.75493666 315.4875946 -0.74694824 C319.590345 -0.71647001 323.69081243 -0.63795113 327.79266357 -0.54931641 C331.98190423 -0.46732763 336.17151561 -0.43090938 340.36132812 -0.390625 C348.57526396 -0.30494665 356.78734765 -0.16849895 365 0 C363.51464557 4.72747357 361.57721228 8.46080483 358.75 12.5 C354.39134472 18.87927234 350.19456732 25.3467393 346.0625 31.875 C341.94378315 38.37210749 337.81441454 44.86072234 333.625 51.3125 C328.31129696 59.49874546 323.04336989 67.71411713 317.79956055 75.9453125 C314.88639777 80.51464859 311.96974865 85.0762483 308.94140625 89.5703125 C308.29292725 90.54158081 308.29292725 90.54158081 307.63134766 91.5324707 C306.53313918 93.16990179 305.42149043 94.79829749 304.30859375 96.42578125 C302.79512665 98.80400983 302.79512665 98.80400983 303.2434082 100.87768555 C304.13449506 103.37727187 305.32962888 105.31725616 306.796875 107.53125 C307.41103271 108.46445068 308.02519043 109.39765137 308.65795898 110.35913086 C309.34833252 111.39561768 310.03870605 112.43210449 310.75 113.5 C311.4902019 114.6201693 312.22984623 115.74070721 312.96899414 116.86157227 C314.66089377 119.42539515 316.35617202 121.98694729 318.05322266 124.54736328 C321.36282769 129.54391321 324.65597027 134.5512541 327.94921875 139.55859375 C339.51606282 157.14038449 351.09072813 174.71651198 362.81030273 192.19702148 C363.46329346 193.17227783 364.11628418 194.14753418 364.7890625 195.15234375 C365.34287598 195.97726318 365.89668945 196.80218262 366.46728516 197.65209961 C371 204.59557184 371 204.59557184 371 207 C361.73368442 207.23211976 352.46837497 207.40958544 343.19978237 207.51812172 C338.89540587 207.57022678 334.59302352 207.64083668 330.28979492 207.75439453 C326.13341401 207.86338561 321.97894514 207.92290647 317.82124519 207.94877243 C316.23859613 207.96719301 314.6560472 208.00317021 313.07421684 208.05730057 C300.70355892 208.46362936 300.70355892 208.46362936 296.53372192 204.881073 C294.71327548 202.32236487 293.34040284 199.83475124 292 197 C291.01320262 195.34362531 290.01491048 193.69398702 289 192.0546875 C287.99681846 190.32997162 286.99693235 188.6033356 286 186.875 C279.43309031 175.62216453 272.55597491 164.57701839 265.609375 153.55566406 C263.39718762 150.04274272 261.19800741 146.52180732 259 143 C254.22400695 149.61858022 249.89191297 156.37149942 245.8125 163.4375 C240.29278087 172.89127349 234.64389776 182.25940212 228.59770203 191.38824177 C226.90759096 194.05182988 226.90759096 194.05182988 225.44250488 197.24619579 C220.80606617 206.27626414 220.80606617 206.27626414 216.05293274 208.18096352 C212.42046765 208.60285847 208.98677776 208.61022738 205.33203125 208.47583008 C203.9614141 208.47215771 202.59077143 208.47423209 201.22016907 208.48158264 C197.51807692 208.48529719 193.82151575 208.40917002 190.12070465 208.31812119 C186.24661217 208.23656779 182.37237698 208.22919623 178.49755859 208.21379089 C171.16904439 208.17346506 163.84306662 208.06690767 156.51566696 207.93624753 C148.17017156 207.79068015 139.82455164 207.71940101 131.47810173 207.65420687 C114.3172699 207.51850689 97.15890352 207.290017 80 207 C79.04888142 204.15514652 78.0984644 201.31006179 77.1484375 198.46484375 C76.88216553 197.66864624 76.61589355 196.87244873 76.34155273 196.05212402 C70 177.05174435 70 177.05174435 70 173 C46.24 173 22.48 173 -2 173 C-2.66 176.3 -3.32 179.6 -4 183 C-7.465 194.88 -7.465 194.88 -11 207 C-33.11 207 -55.22 207 -78 207 C-73.82292582 195.06550234 -69.63697345 183.17595003 -65.15625 171.359375 C-64.62453487 169.9515198 -64.09304731 168.54357864 -63.56176758 167.13555908 C-62.44935325 164.18865401 -61.33553048 161.24228737 -60.22045898 158.29638672 C-58.46287579 153.65294488 -56.70866696 149.00823279 -54.95507812 144.36328125 C-54.3658504 142.80261016 -53.77661702 141.24194121 -53.18737793 139.68127441 C-52.8978978 138.9145491 -52.60841766 138.14782379 -52.31016541 137.35786438 C-51.44241618 135.059894 -50.57434871 132.7620441 -49.70617676 130.4642334 C-45.89369524 120.37306762 -42.09420159 110.27715039 -38.31362915 100.17398071 C-35.5467594 92.78102845 -32.77301518 85.39064875 -30 78 C-29.76629951 77.37707314 -29.53259903 76.75414627 -29.29181671 76.11234283 C-25.86440655 66.97681978 -22.43427823 57.84232403 -18.99956703 48.70954323 C-17.51606388 44.76480817 -16.03347257 40.8197364 -14.55322266 36.8737793 C-13.1527278 33.14054689 -11.74961172 29.40830973 -10.34461021 25.67677116 C-9.82266244 24.28919234 -9.30163056 22.90126858 -8.78159523 21.51297188 C-8.05784972 19.58133656 -7.33069824 17.65101454 -6.6027832 15.72094727 C-6.19502151 14.63580338 -5.78725983 13.55065948 -5.36714172 12.43263245 C-3.69695362 8.23910827 -1.83326303 4.12484181 0 0 Z M34 57 C29.27679079 70.94077766 24.7755154 84.93613547 20.49047852 99.01782227 C19.54461348 102.12118528 18.58977218 105.22170514 17.63476562 108.32226562 C17.02810407 110.30973054 16.42196357 112.29735461 15.81640625 114.28515625 C15.53213272 115.20482681 15.24785919 116.12449738 14.95497131 117.07203674 C14.69727463 117.92490768 14.43957794 118.77777863 14.17407227 119.65649414 C13.9464772 120.40145645 13.71888214 121.14641876 13.48439026 121.91395569 C12.84920847 124.29246506 12.84920847 124.29246506 13 128 C27.19 128 41.38 128 56 128 C54.79953841 122.59792284 53.64253917 117.52611051 52.02880859 112.28686523 C51.45844376 110.42595497 51.45844376 110.42595497 50.8765564 108.52745056 C50.46725904 107.2044749 50.05788432 105.88152316 49.6484375 104.55859375 C49.22500672 103.18149518 48.8018857 101.80430133 48.37905884 100.42701721 C47.27411509 96.83078281 46.16501275 93.23584457 45.05499268 89.64117432 C43.91952804 85.96143724 42.78806563 82.2804701 41.65625 78.59960938 C39.44138042 71.39854058 37.22210916 64.19883852 35 57 C34.67 57 34.34 57 34 57 Z " fill="#000000" transform="translate(980,269)"/>
<path d="M0 0 C20.13 0 40.26 0 61 0 C62.23218396 3.69655189 63.25916312 6.79916715 63.95509338 10.52896118 C64.11626648 11.38125809 64.27743958 12.23355499 64.4434967 13.11167908 C64.61239914 14.02824783 64.78130157 14.94481659 64.95532227 15.88916016 C65.13932587 16.86872177 65.32332947 17.84828339 65.51290894 18.85752869 C66.11800274 22.0839853 66.71718144 25.31151121 67.31640625 28.5390625 C67.73673439 30.78542487 68.15747085 33.03171087 68.57859802 35.27792358 C69.68494457 41.18413882 70.78644274 47.09124744 71.88671875 52.99859619 C73.65008249 62.46122776 75.42101505 71.92244607 77.19154167 81.38373947 C77.80947025 84.68945714 78.42547581 87.99552862 79.04115295 91.30166626 C79.41876129 93.32432634 79.79639944 95.34698086 80.17407227 97.36962891 C80.34499893 98.29024612 80.5159256 99.21086334 80.69203186 100.15937805 C80.85038513 101.00603531 81.0087384 101.85269257 81.17189026 102.7250061 C81.30848336 103.45833475 81.44507647 104.1916634 81.58580875 104.94721413 C81.99664268 106.98336069 82.47986319 108.98926144 83 111 C83.25785278 110.06215164 83.51570557 109.12430328 83.78137207 108.15803528 C86.25106402 99.1754677 88.72088917 90.19293676 91.19083405 81.21043873 C92.45964291 76.59612047 93.72841008 71.98179076 94.99707031 67.36743164 C95.49023349 65.57373023 95.98339755 63.78002905 96.4765625 61.98632812 C96.71974213 61.10183424 96.96292175 60.21734035 97.21347046 59.30604362 C98.42746865 54.89075339 99.64183329 50.47556446 100.85693359 46.06057739 C101.33170814 44.33547023 101.80648031 42.61036241 102.28125 40.88525391 C102.51159943 40.0483005 102.74194885 39.21134708 102.97927856 38.34903145 C104.28150017 33.6161123 105.58081646 28.88241112 106.87680817 24.14778233 C107.62858761 21.40206675 108.38186951 18.65676476 109.13542175 15.91153526 C109.64272936 14.06103775 110.14787151 12.209947 110.6529541 10.35884094 C110.95117065 9.27322372 111.24938721 8.18760651 111.55664062 7.0690918 C111.81336548 6.13074997 112.07009033 5.19240814 112.33459473 4.22563171 C113 2 113 2 114 0 C134.13 0 154.26 0 175 0 C178.3749884 8.99996907 178.3749884 8.99996907 179.33436584 12.48353577 C179.55436752 13.27534744 179.7743692 14.06715912 180.0010376 14.88296509 C180.23022888 15.72217499 180.45942017 16.56138489 180.69555664 17.42602539 C180.94637497 18.33278519 181.1971933 19.23954498 181.45561218 20.17378235 C182.27725206 23.14746501 183.09372208 26.12254056 183.91015625 29.09765625 C184.48367428 31.17704706 185.05752703 33.25634558 185.63169861 35.33555603 C187.13836259 40.7948624 188.6406839 46.2553543 190.14202881 51.71612549 C191.66838811 57.2652072 193.1985216 62.81324769 194.72851562 68.36132812 C196.44907419 74.60063661 198.16930483 80.8400324 199.88624573 87.08033752 C200.14788513 88.03093048 200.40952454 88.98152344 200.67909241 89.96092224 C201.1645065 91.72472528 201.64966072 93.48859987 202.13449097 95.25256348 C203.39793997 99.84250019 204.68399463 104.42484546 206 109 C206.33 109 206.66 109 207 109 C207.10215285 108.45646976 207.20430571 107.91293951 207.3095541 107.35293865 C209.79437072 94.13263455 212.28152894 80.91277284 214.77121639 67.69338512 C215.97513484 61.30059987 217.17827101 54.90766944 218.37963867 48.5144043 C219.53842501 42.34789914 220.69924101 36.18177927 221.86148262 30.01592445 C222.30517893 27.66007489 222.74813597 25.30408597 223.19035149 22.94795799 C223.80847375 19.65528484 224.42919087 16.36311098 225.05053711 13.07104492 C225.32566635 11.60045624 225.32566635 11.60045624 225.60635376 10.10015869 C225.77601151 9.20413437 225.94566925 8.30811005 226.12046814 7.38493347 C226.26703322 6.6060184 226.41359831 5.82710333 226.56460476 5.02458477 C227 3 227 3 228 0 C248.13 0 268.26 0 289 0 C288.39212366 5.47088703 287.82121989 10.36757531 286.64953613 15.65283203 C286.37508667 16.90173218 286.10063721 18.15063232 285.81787109 19.43737793 C285.51473551 20.79420891 285.21150985 22.15101977 284.90820312 23.5078125 C284.5872815 24.95974926 284.26677726 26.41177833 283.94665527 27.8638916 C283.078439 31.79667779 282.20443567 35.72815757 281.32940102 39.65943146 C280.40393382 43.82215802 279.48394425 47.98609496 278.56335449 52.14990234 C276.81060262 60.07372726 275.05311227 67.99649315 273.29384947 75.91887474 C271.13471022 85.64297023 268.98131853 95.36833656 266.828125 105.09375 C266.06409392 108.54444416 265.3000141 111.99512752 264.53588867 115.44580078 C264.34880435 116.29065096 264.16172003 117.13550114 263.96896648 118.00595284 C262.66568511 123.89076235 261.36108799 129.77527924 260.0559082 135.65966797 C257.00210153 149.42912181 253.94899637 163.19863391 250.93359375 176.9765625 C250.71373558 177.98091339 250.49387741 178.98526428 250.26735687 180.02005005 C249.30766193 184.40680968 248.35024032 188.79404774 247.39660645 193.18212891 C247.08147303 194.6266301 246.76632907 196.07112899 246.45117188 197.515625 C246.19074097 198.71477539 245.93031006 199.91392578 245.6619873 201.14941406 C245 204 245 204 244 207 C222.88 207 201.76 207 180 207 C178.22753906 200.6578125 176.45507812 194.315625 174.62890625 187.78125 C173.4850545 183.68879412 172.34118715 179.59634262 171.19726562 175.50390625 C169.39381381 169.05196186 167.59041022 162.60000404 165.78735352 156.14794922 C158.87867251 131.42619845 151.96284872 106.70655719 145 82 C141.10866775 94.12700756 137.60899127 106.3417292 134.21875 118.6171875 C133.67759698 120.56908404 133.13621026 122.5209158 132.59460449 124.47268677 C131.18046182 129.57116332 129.76941323 134.67049092 128.35906982 139.77001953 C126.93524989 144.91620553 125.50853338 150.06158823 124.08203125 155.20703125 C122.22293962 161.9137613 120.36451903 168.62067541 118.50858307 175.3282795 C118.03140363 177.0521007 117.55379021 178.77580185 117.07570648 180.49937248 C115.89636072 184.75211986 114.72414396 189.00662327 113.56420898 193.26470947 C113.2199651 194.52176539 113.2199651 194.52176539 112.86876678 195.80421638 C112.43353331 197.39395163 112.00089574 198.98440055 111.57123566 200.57565117 C110.11262857 205.88737143 110.11262857 205.88737143 109 207 C107.03630847 207.0940067 105.06920801 207.11743381 103.10327148 207.11352539 C101.84203964 207.11344986 100.5808078 207.11337433 99.28135681 207.11329651 C97.89460206 207.1081891 96.50784771 207.10297309 95.12109375 207.09765625 C93.71004791 207.09579201 92.29900143 207.09436814 90.88795471 207.09336853 C87.16759465 207.08954379 83.4472734 207.0797139 79.72692871 207.06866455 C75.93319219 207.05844948 72.13944942 207.05387071 68.34570312 207.04882812 C60.89711769 207.03809158 53.44856428 207.0210157 46 207 C44.34507927 202.32717922 43.15377074 197.61600336 42.08908081 192.78181458 C41.81700308 191.56448475 41.81700308 191.56448475 41.53942883 190.3225624 C40.9345624 187.61259587 40.33422556 184.90164664 39.73388672 182.19067383 C39.30036304 180.2438836 38.86656919 178.29715351 38.43252563 176.35047913 C37.25615236 171.07046817 36.08379594 165.78957285 34.91233206 160.50847077 C33.68638669 154.98412141 32.45734151 149.4604616 31.22879028 143.93669128 C29.16700448 134.6641116 27.10789729 125.39094004 25.05029297 116.11743164 C22.66947778 105.3874213 20.28407793 94.65843782 17.89630687 83.92997342 C15.8472368 74.72275724 13.80063549 65.51499487 11.75610936 56.3067686 C10.53455307 50.80508221 9.31213301 45.30359155 8.08749008 39.80259132 C6.93715102 34.63471055 5.78990538 29.46615276 4.64507675 24.29704857 C4.22369472 22.39685212 3.80122299 20.49689696 3.37760162 18.59719849 C2.80111931 16.01118351 2.22852908 13.42433734 1.6569519 10.8372345 C1.48711442 10.07965798 1.31727693 9.32208146 1.14229286 8.54154807 C0.5020517 5.62751831 0 2.99405887 0 0 Z " fill="#000000" transform="translate(614,269)"/>
<path d="M0 0 C0.77103058 -0.00570007 1.54206116 -0.01140015 2.3364563 -0.01727295 C3.9651759 -0.02667458 5.59391411 -0.03323756 7.22265625 -0.03710938 C9.65400797 -0.04671187 12.08447475 -0.07773742 14.515625 -0.109375 C28.39105721 -0.20427206 41.90324474 1.31849577 55.0703125 5.953125 C56.1840625 6.33718506 56.1840625 6.33718506 57.3203125 6.72900391 C68.40132278 10.69094271 78.02906787 16.34254959 86.8203125 24.203125 C87.65304687 24.94175781 88.48578125 25.68039062 89.34375 26.44140625 C108.97431972 44.89414179 116.77218724 71.35355407 117.92871094 97.66967773 C118.65110934 127.63440802 114.47692913 155.94281237 95.8203125 180.203125 C95.26859375 180.93917969 94.716875 181.67523438 94.1484375 182.43359375 C79.39642875 200.72754519 54.60637295 210.5833373 31.8203125 213.203125 C-1.15653801 216.6957471 -36.51929641 213.16236649 -63.16796875 191.80859375 C-84.11433571 174.00634675 -94.13428829 148.30146303 -96.8046875 121.453125 C-98.51203028 97.51928348 -96.75596386 71.70192396 -85.1796875 50.203125 C-84.66664063 49.22085938 -84.15359375 48.23859375 -83.625 47.2265625 C-79.64311187 39.97842512 -74.92296353 34.1223212 -69.1796875 28.203125 C-68.63957031 27.58953125 -68.09945312 26.9759375 -67.54296875 26.34375 C-51.29384167 8.49836106 -23.40287763 0.13816279 0 0 Z M-20.1796875 61.203125 C-33.70408304 77.40124941 -33.74526573 101.77628237 -31.9453125 121.81201172 C-30.33575953 134.75461775 -27.08831018 147.18440179 -17.02734375 156.11328125 C-6.73129147 163.97299053 5.03163562 166.60501575 17.8203125 165.203125 C25.98995192 163.57650776 32.73944334 160.96321436 38.8203125 155.203125 C39.63242187 154.45095703 39.63242187 154.45095703 40.4609375 153.68359375 C53.21749309 140.4438353 53.29442123 119.18781105 53.16943359 102.02441406 C52.86135092 87.148422 50.75129403 72.35863869 40.64453125 60.69140625 C30.6502793 51.35308102 19.56946798 48.56180401 6.1171875 48.8984375 C-4.46169712 49.46233399 -12.81714549 53.64918242 -20.1796875 61.203125 Z " fill="#000000" transform="translate(297.1796875,265.796875)"/>
<path d="M0 0 C19.01625 -0.04125 38.0325 -0.0825 57.625 -0.125 C66.5961499 -0.15231201 66.5961499 -0.15231201 75.74853516 -0.18017578 C83.11206055 -0.18920898 83.11206055 -0.18920898 86.57089233 -0.19088745 C88.96111803 -0.19393715 91.35134086 -0.20092621 93.74154663 -0.21115112 C117.40282107 -0.30721652 140.12376198 -0.08450132 159 16 C172.62644492 29.86937992 176.29734358 47.32624949 176.2421875 66.16894531 C175.98811469 83.66820996 170.8737622 100.16693104 158.40625 112.890625 C137.61669321 131.11523648 110.8245045 131.17936574 84.75 131.0625 C78.2325 131.041875 71.715 131.02125 65 131 C65 156.08 65 181.16 65 207 C43.55 207 22.1 207 0 207 C0 138.69 0 70.38 0 0 Z M65 43 C65 57.85 65 72.7 65 88 C68.58875 88.04125 72.1775 88.0825 75.875 88.125 C76.98472168 88.14320801 78.09444336 88.16141602 79.23779297 88.18017578 C89.04883393 88.23409216 99.88600324 87.50726425 107.53515625 80.6171875 C112.19525207 75.42722656 113.45445722 70.07797375 113.23828125 63.296875 C112.51170419 56.29314857 109.78811543 52.22106795 104.62109375 47.54296875 C96.18276058 42.5755446 87.42333678 42.61471886 77.875 42.8125 C73.62625 42.874375 69.3775 42.93625 65 43 Z " fill="#000000" transform="translate(0,269)"/>
<path d="M0 0 C21.45 0 42.9 0 65 0 C65 51.15 65 102.3 65 155 C97.67 155 130.34 155 164 155 C164 172.16 164 189.32 164 207 C109.88 207 55.76 207 0 207 C0 138.69 0 70.38 0 0 Z " fill="#000000" transform="translate(448,269)"/>
<path d="M0 0 C6.79872322 5.66560268 10.49954916 11.76036624 13.2734375 20.08203125 C14.15793418 32.04448636 12.75310057 41.67796131 5.109375 51.26171875 C-1.87341267 58.18507844 -10.76387413 61.48259096 -20.4765625 61.45703125 C-30.67250091 61.41272136 -39.4406273 58.43050667 -46.7265625 51.08203125 C-53.95811862 41.21497467 -55.7219783 32.21602384 -54.7265625 20.08203125 C-52.64214001 10.75829711 -46.89986151 4.11886394 -39.2265625 -1.29296875 C-27.23998238 -8.68168145 -11.51951233 -8.10326727 0 0 Z M-40.7265625 9.08203125 C-46.24253489 15.35592351 -48.08887084 23.312271 -47.5703125 31.5703125 C-46.15606241 39.4438779 -41.89513078 45.87692917 -35.67578125 50.828125 C-30.0441591 54.45087191 -23.38156868 56.13723944 -16.7265625 55.08203125 C-8.03856021 52.96975283 -2.43984305 49.53038634 2.5859375 42.15625 C6.66015955 34.6444031 6.7882607 25.18953248 4.390625 17.10546875 C1.17938298 10.0662561 -3.37093482 5.8841276 -10.1015625 2.26953125 C-21.60990144 -1.50044185 -31.90931083 0.46115489 -40.7265625 9.08203125 Z " fill="#000000" transform="translate(1416.7265625,136.91796875)"/>
<path d="M0 0 C12.54 0 25.08 0 38 0 C38 11.88 38 23.76 38 36 C25.46 36 12.92 36 0 36 C0 24.12 0 12.24 0 0 Z " fill="#000000" transform="translate(318,221)"/>
<path d="M0 0 C12.21 0 24.42 0 37 0 C37 11.88 37 23.76 37 36 C24.79 36 12.58 36 0 36 C0 24.12 0 12.24 0 0 Z " fill="#000000" transform="translate(259,221)"/>
<path d="M0 0 C5.0428125 -0.0928125 5.0428125 -0.0928125 10.1875 -0.1875 C11.76374146 -0.22846802 11.76374146 -0.22846802 13.37182617 -0.27026367 C22.01847636 -0.34736967 22.01847636 -0.34736967 26 3 C28.33772514 5.90200363 28.96474659 7.72300894 29.4375 11.4375 C28.91339292 15.7052291 27.83328184 17.78384224 25 21 C22.35546875 21.6640625 22.35546875 21.6640625 20 22 C20.30292969 22.47945068 20.60585937 22.95890137 20.91796875 23.45288086 C22.28096482 25.61296752 23.64052314 27.77519693 25 29.9375 C25.47695312 30.69224609 25.95390625 31.44699219 26.4453125 32.22460938 C27.12207031 33.30258789 27.12207031 33.30258789 27.8125 34.40234375 C28.23144531 35.06741943 28.65039062 35.73249512 29.08203125 36.41772461 C30 38 30 38 30 39 C27.0125893 39.3481093 24.89574455 39.59182116 22 39 C19.72339406 37.06192832 18.42986505 34.72521722 17 32.125 C16.41025391 31.14853516 16.41025391 31.14853516 15.80859375 30.15234375 C13 25.40611389 13 25.40611389 13 23 C11.02 23 9.04 23 7 23 C7 28.28 7 33.56 7 39 C4.69 39 2.38 39 0 39 C0 26.13 0 13.26 0 0 Z M7 6 C7 9.63 7 13.26 7 17 C9.35125 17.061875 9.35125 17.061875 11.75 17.125 C12.63171875 17.14820313 13.5134375 17.17140625 14.421875 17.1953125 C17.16886832 16.98720695 18.73836094 16.56258699 21 15 C21.81584568 11.94091587 21.81584568 11.94091587 22 9 C18.72698081 6.03090402 16.61934238 5.65645206 12.25 5.8125 C10.5175 5.874375 8.785 5.93625 7 6 Z " fill="#000000" transform="translate(1383,145)"/>
</svg>
